HIERARCHY
ROOT Hips
{
	OFFSET 0.000000 100.481300 0.000000
	CHANNELS 6 Xposition Yposition Zposition Xrotation Yrotation Zrotation 
	JOINT Spine
	{
		OFFSET -0.279200 12.230698 -2.892100
		CHANNELS 3 Xrotation Yrotation Zrotation
		JOINT Spine1
		{
			OFFSET -0.232667 10.192268 -1.242267
			CHANNELS 3 Xrotation Yrotation Zrotation
			JOINT Spine1_split
			{
				OFFSET -0.232667 10.192268 -1.242267
				CHANNELS 3 Xrotation Yrotation Zrotation
				JOINT Spine2
				{
					OFFSET -0.232667 10.192268 -1.242267
					CHANNELS 3 Xrotation Yrotation Zrotation
					JOINT Neck
					{
						OFFSET -0.418800 17.814194 8.416900
						CHANNELS 3 Xrotation Yrotation Zrotation
						JOINT Head
						{
							OFFSET 0.000000 7.031097 3.806800
							CHANNELS 3 Xrotation Yrotation Zrotation
							JOINT HeadTop_End
							{
								OFFSET 0.000000 24.646606 12.978600
								CHANNELS 3 Xrotation Yrotation Zrotation
								End Site
								{
									OFFSET 0.000000 0.000000 0.000000
								}
							}
						}
					}
					JOINT LeftShoulder
					{
						OFFSET 8.476499 7.247704 -3.868750
						CHANNELS 3 Xrotation Yrotation Zrotation
						JOINT LeftShoulder_split
						{
							OFFSET 8.476499 7.247704 -3.868750
							CHANNELS 3 Xrotation Yrotation Zrotation
							JOINT LeftArm
							{
								OFFSET 9.308998 -2.777710 0.208600
								CHANNELS 3 Xrotation Yrotation Zrotation
								JOINT LeftForeArm
								{
									OFFSET 29.972298 0.000000 0.000000
									CHANNELS 3 Xrotation Yrotation Zrotation
									JOINT LeftHand
									{
										OFFSET 26.026505 0.000000 0.000000
										CHANNELS 3 Xrotation Yrotation Zrotation
										JOINT LeftHandThumb1
										{
											OFFSET 12.240501 -7.147949 9.207150
											CHANNELS 3 Xrotation Yrotation Zrotation
											JOINT LeftHandThumb2
											{
												OFFSET 4.138618 -2.389435 2.389433
												CHANNELS 3 Xrotation Yrotation Zrotation
												JOINT LeftHandThumb3
												{
													OFFSET 2.726913 -1.574387 1.574386
													CHANNELS 3 Xrotation Yrotation Zrotation
													JOINT LeftHandThumb4
													{
														OFFSET 3.941010 -2.275345 2.275342
														CHANNELS 3 Xrotation Yrotation Zrotation
														End Site
														{
															OFFSET 0.000000 0.000000 0.000000
														}
													}
												}
											}
										}
										JOINT LeftHandIndex1
										{
											OFFSET 24.424698 -1.985611 5.953459
											CHANNELS 3 Xrotation Yrotation Zrotation
											JOINT LeftHandIndex2
											{
												OFFSET 6.426697 0.000000 0.000000
												CHANNELS 3 Xrotation Yrotation Zrotation
												JOINT LeftHandIndex3
												{
													OFFSET 5.337898 0.000000 0.000000
													CHANNELS 3 Xrotation Yrotation Zrotation
													JOINT LeftHandIndex4
													{
														OFFSET 4.409401 0.000000 0.000000
														CHANNELS 3 Xrotation Yrotation Zrotation
														End Site
														{
															OFFSET 0.000000 0.000000 0.000000
														}
													}
												}
											}
										}
										JOINT LeftHandMiddle1
										{
											OFFSET 23.810104 0.000000 0.000000
											CHANNELS 3 Xrotation Yrotation Zrotation
											JOINT LeftHandMiddle2
											{
												OFFSET 7.176498 0.000000 0.000000
												CHANNELS 3 Xrotation Yrotation Zrotation
												JOINT LeftHandMiddle3
												{
													OFFSET 6.774902 0.000000 0.000000
													CHANNELS 3 Xrotation Yrotation Zrotation
													JOINT LeftHandMiddle4
													{
														OFFSET 5.403328 0.000000 0.000000
														CHANNELS 3 Xrotation Yrotation Zrotation
														End Site
														{
															OFFSET 0.000000 0.000000 0.000000
														}
													}
												}
											}
										}
										JOINT LeftHandRing1
										{
											OFFSET 22.908401 -0.839279 -6.020567
											CHANNELS 3 Xrotation Yrotation Zrotation
											JOINT LeftHandRing2
											{
												OFFSET 6.337502 0.000000 0.000000
												CHANNELS 3 Xrotation Yrotation Zrotation
												JOINT LeftHandRing3
												{
													OFFSET 5.779297 0.000000 0.000000
													CHANNELS 3 Xrotation Yrotation Zrotation
													JOINT LeftHandRing4
													{
														OFFSET 4.965698 0.000000 0.000000
														CHANNELS 3 Xrotation Yrotation Zrotation
														End Site
														{
															OFFSET 0.000000 0.000000 0.000000
														}
													}
												}
											}
										}
										JOINT LeftHandPinky1
										{
											OFFSET 20.037003 -1.530319 -10.950146
											CHANNELS 3 Xrotation Yrotation Zrotation
											JOINT LeftHandPinky2
											{
												OFFSET 5.254700 0.000000 0.000000
												CHANNELS 3 Xrotation Yrotation Zrotation
												JOINT LeftHandPinky3
												{
													OFFSET 4.810204 0.000000 0.000000
													CHANNELS 3 Xrotation Yrotation Zrotation
													JOINT LeftHandPinky4
													{
														OFFSET 3.647202 0.000000 0.000000
														CHANNELS 3 Xrotation Yrotation Zrotation
														End Site
														{
															OFFSET 0.000000 0.000000 0.000000
														}
													}
												}
											}
										}
									}
								}
							}
						}
					}
					JOINT RightShoulder
					{
						OFFSET -7.570500 7.247704 -3.868750
						CHANNELS 3 Xrotation Yrotation Zrotation
						JOINT RightShoulder_split
						{
							OFFSET -7.570500 7.247704 -3.868750
							CHANNELS 3 Xrotation Yrotation Zrotation
							JOINT RightArm
							{
								OFFSET -9.308998 -2.777710 0.208500
								CHANNELS 3 Xrotation Yrotation Zrotation
								JOINT RightForeArm
								{
									OFFSET -29.972300 0.000000 0.000000
									CHANNELS 3 Xrotation Yrotation Zrotation
									JOINT RightHand
									{
										OFFSET -26.026505 0.000000 0.000000
										CHANNELS 3 Xrotation Yrotation Zrotation
										JOINT RightHandThumb1
										{
											OFFSET -12.240601 -7.148026 9.207092
											CHANNELS 3 Xrotation Yrotation Zrotation
											JOINT RightHandThumb2
											{
												OFFSET -4.138618 -2.389435 2.389433
												CHANNELS 3 Xrotation Yrotation Zrotation
												JOINT RightHandThumb3
												{
													OFFSET -2.726974 -1.574417 1.574421
													CHANNELS 3 Xrotation Yrotation Zrotation
													JOINT RightHandThumb4
													{
														OFFSET -3.941010 -2.275345 2.275343
														CHANNELS 3 Xrotation Yrotation Zrotation
														End Site
														{
															OFFSET 0.000000 0.000000 0.000000
														}
													}
												}
											}
										}
										JOINT RightHandIndex1
										{
											OFFSET -24.424698 -1.985657 5.953444
											CHANNELS 3 Xrotation Yrotation Zrotation
											JOINT RightHandIndex2
											{
												OFFSET -6.426697 0.000000 0.000000
												CHANNELS 3 Xrotation Yrotation Zrotation
												JOINT RightHandIndex3
												{
													OFFSET -5.337898 0.000000 0.000000
													CHANNELS 3 Xrotation Yrotation Zrotation
													JOINT RightHandIndex4
													{
														OFFSET -4.409401 0.000000 0.000000
														CHANNELS 3 Xrotation Yrotation Zrotation
														End Site
														{
															OFFSET 0.000000 0.000000 0.000000
														}
													}
												}
											}
										}
										JOINT RightHandMiddle1
										{
											OFFSET -23.810097 0.000000 0.000000
											CHANNELS 3 Xrotation Yrotation Zrotation
											JOINT RightHandMiddle2
											{
												OFFSET -7.176498 0.000000 0.000000
												CHANNELS 3 Xrotation Yrotation Zrotation
												JOINT RightHandMiddle3
												{
													OFFSET -6.774902 0.000000 0.000000
													CHANNELS 3 Xrotation Yrotation Zrotation
													JOINT RightHandMiddle4
													{
														OFFSET -5.403328 0.000000 0.000000
														CHANNELS 3 Xrotation Yrotation Zrotation
														End Site
														{
															OFFSET 0.000000 0.000000 0.000000
														}
													}
												}
											}
										}
										JOINT RightHandRing1
										{
											OFFSET -22.908302 -0.839325 -6.020576
											CHANNELS 3 Xrotation Yrotation Zrotation
											JOINT RightHandRing2
											{
												OFFSET -6.337502 0.000000 0.000000
												CHANNELS 3 Xrotation Yrotation Zrotation
												JOINT RightHandRing3
												{
													OFFSET -5.779297 0.000000 0.000000
													CHANNELS 3 Xrotation Yrotation Zrotation
													JOINT RightHandRing4
													{
														OFFSET -4.965698 0.000000 0.000000
														CHANNELS 3 Xrotation Yrotation Zrotation
														End Site
														{
															OFFSET 0.000000 0.000000 0.000000
														}
													}
												}
											}
										}
										JOINT RightHandPinky1
										{
											OFFSET -20.037003 -1.530334 -10.950259
											CHANNELS 3 Xrotation Yrotation Zrotation
											JOINT RightHandPinky2
											{
												OFFSET -5.254700 0.000000 0.000000
												CHANNELS 3 Xrotation Yrotation Zrotation
												JOINT RightHandPinky3
												{
													OFFSET -4.810204 0.000000 0.000000
													CHANNELS 3 Xrotation Yrotation Zrotation
													JOINT RightHandPinky4
													{
														OFFSET -3.647202 0.000000 0.000000
														CHANNELS 3 Xrotation Yrotation Zrotation
														End Site
														{
															OFFSET 0.000000 0.000000 0.000000
														}
													}
												}
											}
										}
									}
								}
							}
						}
					}
				}
			}
		}
	}
	JOINT LeftUpLeg
	{
		OFFSET 15.427100 -6.655098 0.678600
		CHANNELS 3 Xrotation Yrotation Zrotation
		JOINT LeftLeg
		{
			OFFSET 4.081073 -39.591068 13.024000
			CHANNELS 3 Xrotation Yrotation Zrotation
			JOINT LeftFoot
			{
				OFFSET -4.081074 -37.707932 -15.979700
				CHANNELS 3 Xrotation Yrotation Zrotation
				JOINT LeftToeBase
				{
					OFFSET 5.346399 -15.068900 20.645000
					CHANNELS 3 Xrotation Yrotation Zrotation
					JOINT LeftToe_End
					{
						OFFSET 2.754700 0.931300 11.300900
						CHANNELS 3 Xrotation Yrotation Zrotation
						End Site
						{
							OFFSET 0.000000 0.000000 0.000000
						}
					}
				}
			}
		}
	}
	JOINT RightUpLeg
	{
		OFFSET -15.569500 -6.655098 0.678600
		CHANNELS 3 Xrotation Yrotation Zrotation
		JOINT RightLeg
		{
			OFFSET -4.081825 -39.591045 13.023800
			CHANNELS 3 Xrotation Yrotation Zrotation
			JOINT RightFoot
			{
				OFFSET 4.081824 -37.707954 -15.979600
				CHANNELS 3 Xrotation Yrotation Zrotation
				JOINT RightToeBase
				{
					OFFSET -5.346400 -15.068900 20.645000
					CHANNELS 3 Xrotation Yrotation Zrotation
					JOINT RightToe_End
					{
						OFFSET -2.754700 0.931300 11.300900
						CHANNELS 3 Xrotation Yrotation Zrotation
						End Site
						{
							OFFSET 0.000000 0.000000 0.000000
						}
					}
				}
			}
		}
	}
}
MOTION
Frames: 5
Frame Time: 0.016667
1.522601 79.344955 -0.593119 -4.056144 -61.171659 -2.558218 10.528084 0.523893 -1.430010 7.138507 0.481491 -4.840605 0.000000 0.000000 0.000000 7.341880 0.512812 -4.809182 -23.259403 25.805452 11.809881 -6.291531 25.717211 -2.641169 0.000000 0.000000 0.000000 -6.367302 -10.788149 -3.787803 0.000000 0.000000 0.000000 -21.873377 6.546966 -38.737438 3.298300 -47.813612 1.501521 23.526235 -7.456310 15.579791 -1.744002 -11.605049 7.087507 1.175757 16.638459 -3.372733 -0.086282 -2.198418 0.945723 0.000001 -0.000001 0.000000 13.261901 -0.994779 14.608072 -0.163786 0.326170 -27.178246 -0.141871 0.308251 -28.328913 -0.000003 0.000000 -0.000001 8.530533 -0.377321 3.011985 0.228021 0.647982 -25.974485 0.399850 0.174981 -40.429607 -0.000001 -0.000001 0.000000 6.138294 3.128095 -12.283907 0.030963 0.295605 -26.198147 0.394228 0.759311 -38.213071 0.000001 -0.000001 0.000000 -5.593230 7.672120 -9.955797 0.209728 0.277197 -42.660945 0.243079 0.239781 -42.359447 0.000001 0.000000 -0.000003 -5.546719 11.668535 2.442838 0.000000 0.000000 0.000000 -42.804645 -24.538230 26.405984 34.764194 107.847246 -33.401370 -11.227962 18.802013 -0.896780 -0.426203 14.756545 -9.085197 -0.217019 -13.162703 4.783234 2.611163 -8.768496 -6.255832 -0.000000 0.000002 -0.000001 19.387707 11.163745 -18.356924 -0.122754 -0.303393 13.011844 -0.103183 -0.275701 18.232866 0.000002 0.000002 -0.000001 4.365709 2.482338 -9.836900 0.357439 -0.462546 21.866697 0.450763 0.187215 34.021189 -0.000001 0.000000 -0.000000 -6.967551 -10.645250 0.698113 0.113397 -0.065234 21.132221 0.449827 -0.432027 28.241094 0.000002 0.000001 0.000000 -19.392990 -20.192988 0.968374 0.222131 -0.061970 31.820909 0.266715 -0.041622 31.448028 -0.000001 0.000000 -0.000000 -32.637748 10.575173 31.990417 40.442015 -9.971659 -10.646786 -7.156474 -1.837800 -10.119573 -0.365385 1.238045 0.751664 -0.000000 0.000004 0.000000 -28.279968 -7.830715 -25.675002 44.848248 5.317867 -6.111094 -16.810018 2.994772 22.249712 -0.365657 -0.996822 -0.739924 -0.000000 -0.000001 0.000000 
1.479630 79.418236 -0.620293 -3.892646 -60.954159 -2.168056 10.588548 0.524864 -1.370113 7.257247 0.468908 -4.778354 0.000000 0.000000 0.000000 7.460062 0.466604 -4.741546 -22.867967 25.805322 11.676778 -5.777270 25.649951 -2.782643 -0.000000 -0.000000 0.000000 -6.418693 -10.815722 -4.148095 0.000000 0.000000 0.000000 -21.457104 6.690801 -38.715100 4.406691 -47.475634 2.146111 23.256359 -7.467383 15.380466 -1.783035 -11.815746 7.005570 1.104974 16.445772 -3.450749 -0.140462 -2.396519 0.847613 -0.000001 -0.000001 -0.000000 13.259815 -0.994090 14.834546 -0.164111 0.325778 -26.951583 -0.142783 0.307239 -28.102250 0.000002 0.000000 -0.000002 8.532563 -0.380243 3.238587 0.227733 0.647178 -25.747841 0.398048 0.174632 -40.202968 -0.000000 -0.000002 0.000001 6.140722 3.125701 -12.057596 0.030054 0.294094 -25.971501 0.393279 0.759290 -37.986391 0.000001 -0.000000 -0.000000 -5.598549 7.673632 -9.728862 0.208907 0.276920 -42.434265 0.242026 0.239242 -42.132828 0.000003 0.000001 -0.000002 -5.573477 11.590780 2.601379 0.000000 0.000000 0.000000 -43.195165 -24.472091 26.216959 33.970130 108.583048 -32.512179 -11.201318 19.600864 -1.776047 -0.422810 14.740475 -9.092033 -0.211398 -13.177336 4.776919 2.614779 -8.783904 -6.262747 -0.000001 -0.000004 0.000001 19.389066 11.163746 -18.339761 -0.122772 -0.303270 13.029347 -0.102346 -0.275602 18.250405 0.000002 -0.000001 0.000001 4.365203 2.482188 -9.819369 0.357991 -0.462938 21.884169 0.451297 0.187040 34.038692 0.000000 0.000001 -0.000000 -6.967644 -10.645387 0.715589 0.113404 -0.065611 21.149684 0.450317 -0.431738 28.258593 -0.000001 0.000000 -0.000000 -19.395272 -20.194270 0.984136 0.222204 -0.062344 31.838486 0.267065 -0.041904 31.465520 0.000001 -0.000000 -0.000000 -32.346038 10.254639 31.458373 40.235729 -9.576253 -10.574908 -7.090533 -1.806385 -10.334623 -0.368758 1.238001 0.744062 -0.000000 -0.000001 -0.000000 -28.345188 -7.974772 -25.996294 44.847627 5.425077 -6.106791 -16.868921 2.924406 22.191706 -0.364929 -0.996929 -0.741640 -0.000000 -0.000001 -0.000000 
1.421475 79.477814 -0.650767 -3.688721 -60.700731 -1.764253 10.637648 0.519989 -1.341403 7.369345 0.453077 -4.726279 0.000000 0.000000 0.000000 7.573432 0.423503 -4.679431 -22.543799 25.796375 11.622065 -5.275321 25.598644 -2.912715 -0.000000 0.000000 0.000000 -6.440484 -10.884641 -4.337060 0.000000 0.000000 0.000000 -21.175192 6.913552 -38.724966 5.577240 -47.056660 2.897923 23.026062 -7.470519 15.124207 -1.779699 -11.806511 7.009867 1.107511 16.455749 -3.449347 -0.136558 -2.387707 0.851936 0.000001 -0.000000 0.000002 13.258847 -0.994107 14.824109 -0.164101 0.325391 -26.961999 -0.142728 0.306723 -28.112661 0.000001 0.000001 0.000000 8.531220 -0.380743 3.228209 0.228455 0.647213 -25.758204 0.397532 0.174846 -40.213422 0.000000 -0.000000 0.000001 6.140629 3.125782 -12.067785 0.029526 0.294148 -25.981877 0.394093 0.759302 -37.996793 0.000002 -0.000000 0.000000 -5.601397 7.673610 -9.738874 0.208915 0.277405 -42.444670 0.242054 0.239245 -42.143220 0.000001 0.000001 -0.000001 -5.599837 11.504892 2.762671 0.000000 0.000000 0.000000 -43.512728 -24.472587 26.085466 33.347258 109.244532 -31.801135 -11.146619 20.342299 -2.590663 -0.415638 14.692884 -9.110324 -0.194274 -13.219759 4.757876 2.622735 -8.829374 -6.283180 -0.000001 0.000002 -0.000001 19.390120 11.163730 -18.289165 -0.122712 -0.303304 13.080229 -0.101465 -0.275438 18.301251 -0.000001 -0.000000 0.000000 4.364102 2.481778 -9.768459 0.358296 -0.463196 21.935040 0.451828 0.186762 34.089536 0.000001 -0.000000 0.000000 -6.968125 -10.645729 0.766207 0.113353 -0.065989 21.200564 0.450328 -0.431672 28.309503 0.000001 -0.000000 -0.000001 -19.396701 -20.195415 1.033493 0.222224 -0.062851 31.889303 0.267304 -0.042139 31.516409 0.000001 -0.000001 0.000001 -32.110236 9.894953 30.954622 40.051833 -9.212186 -10.508004 -7.024158 -1.774225 -10.545210 -0.371980 1.238009 0.736811 -0.000000 0.000000 -0.000000 -28.473001 -8.238816 -26.085705 44.940094 6.501220 -6.097499 -16.859424 1.897370 21.593916 -0.361474 -0.996975 -0.749397 -0.000000 -0.000001 -0.000000 
1.357619 79.546478 -0.661468 -3.398113 -60.452003 -1.329062 10.686264 0.513226 -1.324444 7.474953 0.433638 -4.690575 0.000000 0.000000 0.000000 7.681314 0.379667 -4.629603 -22.293811 25.770329 11.684731 -4.788368 25.569011 -3.031156 -0.000000 0.000000 0.000000 -6.435436 -10.967011 -4.381017 0.000000 0.000000 0.000000 -20.957486 7.136076 -38.771029 6.404536 -46.581310 3.444885 22.835406 -7.451226 14.856010 -1.773524 -11.778460 7.021343 1.117307 16.481818 -3.439125 -0.129120 -2.361194 0.865255 0.000000 -0.000001 -0.000001 13.258217 -0.994220 14.793625 -0.164054 0.325100 -26.992453 -0.142645 0.306689 -28.143134 0.000002 0.000001 -0.000002 8.530099 -0.380814 3.197767 0.228941 0.647375 -25.788708 0.397165 0.175190 -40.243878 -0.000003 -0.000000 0.000001 6.140290 3.126122 -12.098264 0.029283 0.294318 -26.012330 0.394738 0.759294 -38.027242 0.000001 -0.000000 -0.000000 -5.601562 7.673758 -9.769267 0.209025 0.278152 -42.475160 0.242208 0.239327 -42.173744 -0.000000 0.000000 -0.000002 -5.626217 11.414997 2.928154 0.000000 0.000000 0.000000 -43.757255 -24.499841 25.977047 33.032366 109.869583 -31.394852 -11.032544 21.015242 -3.371328 -0.404275 14.616214 -9.139752 -0.167413 -13.288516 4.728268 2.635433 -8.902224 -6.316149 -0.000000 0.000001 0.000001 19.390967 11.163733 -18.207654 -0.122624 -0.303405 13.162004 -0.100436 -0.275494 18.383044 -0.000000 -0.000000 -0.000003 4.362494 2.481079 -9.686590 0.358544 -0.463449 22.016869 0.452451 0.186373 34.171293 0.000002 -0.000000 -0.000001 -6.968842 -10.646390 0.847662 0.113335 -0.066679 21.282316 0.450178 -0.431828 28.391298 0.000002 0.000001 0.000001 -19.398000 -20.196369 1.113748 0.222314 -0.063563 31.971050 0.267494 -0.042476 31.598210 0.000000 -0.000000 -0.000001 -31.949695 9.552913 30.505609 39.876072 -8.885113 -10.446015 -6.964654 -1.749734 -10.727917 -0.374812 1.237873 0.730449 0.000000 -0.000001 -0.000000 -28.550385 -8.430607 -26.370804 44.910990 6.525517 -6.092183 -16.942863 1.883589 21.581222 -0.361108 -0.997028 -0.750248 -0.000000 0.000001 -0.000000 
1.296051 79.603966 -0.664183 -3.098228 -60.277533 -0.920813 10.734253 0.501456 -1.331512 7.574213 0.410796 -4.672918 0.000000 0.000000 0.000000 7.783361 0.335834 -4.593509 -22.082900 25.743873 11.851049 -4.315873 25.561295 -3.138425 0.000000 0.000001 0.000000 -6.409820 -11.054778 -4.315981 0.000000 0.000000 0.000000 -20.815363 7.378773 -38.792520 6.651016 -46.078355 3.603134 22.701221 -7.384941 14.639406 -1.764441 -11.732682 7.039584 1.133333 16.523189 -3.421325 -0.117972 -2.317969 0.886951 0.000000 0.000000 -0.000000 13.257862 -0.994364 14.744271 -0.163986 0.324735 -27.041872 -0.142427 0.306960 -28.192490 0.000000 -0.000002 -0.000001 8.529108 -0.380405 3.148392 0.229301 0.647502 -25.838087 0.396840 0.175522 -40.293267 0.000001 -0.000000 0.000001 6.139764 3.126622 -12.147715 0.029257 0.294711 -26.061763 0.395278 0.759293 -38.076597 0.000002 0.000001 -0.000001 -5.601767 7.674030 -9.818597 0.209212 0.278273 -42.524570 0.242451 0.239470 -42.223106 -0.000000 -0.000003 0.000000 -5.654104 11.324948 3.104025 0.000000 0.000000 0.000000 -43.920647 -24.514010 25.947614 32.981969 110.450108 -31.251073 -10.860977 21.577730 -4.048035 -0.388306 14.513295 -9.179725 -0.130929 -13.381353 4.689042 2.652710 -9.000494 -6.360346 0.000001 0.000002 -0.000003 19.391621 11.163761 -18.097751 -0.122590 -0.303541 13.272214 -0.100061 -0.275579 18.493261 0.000002 -0.000000 -0.000002 4.360329 2.480175 -9.576298 0.358754 -0.463762 22.127018 0.452544 0.185986 34.281502 0.000001 -0.000001 0.000000 -6.969806 -10.647249 0.957373 0.113244 -0.067378 21.392538 0.449756 -0.432173 28.501466 0.000003 -0.000000 -0.000000 -19.399182 -20.197153 1.222454 0.222402 -0.064301 32.081323 0.267615 -0.042881 31.708344 -0.000002 -0.000000 -0.000001 -31.840303 9.291354 30.156706 39.732385 -8.614232 -10.396040 -6.930573 -1.727364 -10.882268 -0.377294 1.237868 0.724790 -0.000000 -0.000001 -0.000000 -28.649078 -8.567245 -26.589973 44.885575 6.549271 -6.088702 -17.008260 1.873947 21.569053 -0.360745 -0.996841 -0.751090 -0.000000 0.000000 -0.000000 
